<svg xmlns="http://www.w3.org/2000/svg" viewBox="0 0 512 512" role="img" aria-label="ATHENA">
  <defs>
    <linearGradient id="a" x1="0" y1="0" x2="1" y2="1">
      <stop offset="0%" stop-color="#7c3aed" />
      <stop offset="100%" stop-color="#ec4899" />
    </linearGradient>
  </defs>
  <rect width="512" height="512" rx="120" fill="url(#a)" />
  <path fill="#fff" d="M256 128c-62 0-112 50-112 112 0 46 28 86 68 103l-32 40c-4 6-1 13 6 13h48v48c0 9 7 16 16 16h12c9 0 16-7 16-16v-48h48c7 0 10-7 6-13l-32-40c40-17 68-57 68-103 0-62-50-112-112-112z"/>
</svg>
